<?xml version="1.0" encoding="UTF-8" standalone="no"?>
<svg width="11.2889" height="11.2889"
 viewBox="0 0 32 32"
 enable-background="new 0 0 32 32"
 xmlns="http://www.w3.org/2000/svg" xmlns:xlink="http://www.w3.org/1999/xlink"  version="1.2" baseProfile="tiny">
<title>Qt SVG Document</title>
<desc>Generated with Qt</desc>
<defs>
</defs>
<g fill="none" stroke="black" stroke-width="1" fill-rule="evenodd" stroke-linecap="square" stroke-linejoin="bevel" >

<g fill="none" stroke="#000000" stroke-opacity="1" stroke-width="1" stroke-linecap="square" stroke-linejoin="bevel" transform="matrix(1,0,0,1,16,16)"
font-family="Arial" font-size="8" font-weight="400" font-style="normal" 
>
</g>

<g fill="none" stroke="#000000" stroke-opacity="1" stroke-width="1" stroke-linecap="square" stroke-linejoin="bevel" transform="matrix(1.33333,0,0,1.33333,16,16)"
font-family="Arial" font-size="8" font-weight="400" font-style="normal" 
>
</g>

<g fill="#ffffff" fill-opacity="1" stroke="none" transform="matrix(0.885827,0,0,0.885827,1.82677,1.82677)"
font-family="Arial" font-size="8" font-weight="400" font-style="normal" 
>
<path vector-effect="none" fill-rule="evenodd" d="M20.252,16 C20.252,18.3483 18.3483,20.252 16,20.252 C13.6517,20.252 11.748,18.3483 11.748,16 C11.748,13.6517 13.6517,11.748 16,11.748 C18.3483,11.748 20.252,13.6517 20.252,16 "/>
</g>

<g fill="none" stroke="#000000" stroke-opacity="1" stroke-width="1.55906" stroke-linecap="square" stroke-linejoin="bevel" transform="matrix(0.885827,0,0,0.885827,1.82677,1.82677)"
font-family="Arial" font-size="8" font-weight="400" font-style="normal" 
>
<path vector-effect="none" fill-rule="evenodd" d="M20.252,16 C20.252,18.3483 18.3483,20.252 16,20.252 C13.6517,20.252 11.748,18.3483 11.748,16 C11.748,13.6517 13.6517,11.748 16,11.748 C18.3483,11.748 20.252,13.6517 20.252,16 "/>
</g>

<g fill="#000000" fill-opacity="1" stroke="none" transform="matrix(0.885827,0,0,0.885827,1.82677,1.82677)"
font-family="Arial" font-size="8" font-weight="400" font-style="normal" 
>
<path vector-effect="none" fill-rule="evenodd" d="M12.594,17.9665 L19.406,17.9665 L16,12.0669 L12.594,17.9665"/>
</g>

<g fill="none" stroke="#000000" stroke-opacity="1" stroke-width="1" stroke-linecap="square" stroke-linejoin="bevel" transform="matrix(1.33333,0,0,1.33333,16,16)"
font-family="Arial" font-size="8" font-weight="400" font-style="normal" 
>
</g>

<g fill="none" stroke="#000000" stroke-opacity="1" stroke-width="1" stroke-linecap="square" stroke-linejoin="bevel" transform="matrix(1,0,0,1,16,16)"
font-family="Arial" font-size="8" font-weight="400" font-style="normal" 
>
</g>

<g fill="none" stroke="#000000" stroke-opacity="1" stroke-width="1" stroke-linecap="square" stroke-linejoin="bevel" transform="matrix(1,0,0,1,0,0)"
font-family="Arial" font-size="8" font-weight="400" font-style="normal" 
>
</g>
</g>
</svg>
