<?xml version="1.0" encoding="UTF-8" standalone="no"?>
<svg width="11.2889" height="11.2889"
 viewBox="0 0 32 32"
 enable-background="new 0 0 32 32"
 xmlns="http://www.w3.org/2000/svg" xmlns:xlink="http://www.w3.org/1999/xlink"  version="1.2" baseProfile="tiny">
<title>Qt SVG Document</title>
<desc>Generated with Qt</desc>
<defs>
</defs>
<g fill="none" stroke="black" stroke-width="1" fill-rule="evenodd" stroke-linecap="square" stroke-linejoin="bevel" >

<g fill="none" stroke="#000000" stroke-opacity="1" stroke-width="1" stroke-linecap="square" stroke-linejoin="bevel" transform="matrix(1,0,0,1,16,16)"
font-family="Arial" font-size="8" font-weight="400" font-style="normal" 
>
</g>

<g fill="none" stroke="#000000" stroke-opacity="1" stroke-width="1" stroke-linecap="square" stroke-linejoin="bevel" transform="matrix(1.33333,0,0,1.33333,16,16)"
font-family="Arial" font-size="8" font-weight="400" font-style="normal" 
>
</g>

<g fill="#ffffff" fill-opacity="1" stroke="none" transform="matrix(0.885827,0,0,0.885827,1.82677,1.82677)"
font-family="Arial" font-size="8" font-weight="400" font-style="normal" 
>
<path vector-effect="none" fill-rule="evenodd" d="M7.73229,20.8661 L7.73229,12.5984 L24.2677,12.5984 L24.2677,20.8661 L7.73229,20.8661"/>
</g>

<g fill="none" stroke="#000000" stroke-opacity="1" stroke-width="1.13386" stroke-linecap="square" stroke-linejoin="round" transform="matrix(0.885827,0,0,0.885827,1.82677,1.82677)"
font-family="Arial" font-size="8" font-weight="400" font-style="normal" 
>
<path vector-effect="none" fill-rule="evenodd" d="M7.73229,20.8661 L7.73229,12.5984 L24.2677,12.5984 L24.2677,20.8661 L7.73229,20.8661"/>
</g>

<g fill="none" stroke="none" transform="matrix(0.885827,0,0,0.885827,1.82677,1.82677)"
font-family="Arial" font-size="8" font-weight="400" font-style="normal" 
>
<path vector-effect="none" fill-rule="evenodd" d="M23.7884,13.2398 L8.31192,20.2928"/>
</g>

<g fill="none" stroke="#000000" stroke-opacity="1" stroke-width="1.13386" stroke-linecap="square" stroke-linejoin="round" transform="matrix(0.885827,0,0,0.885827,1.82677,1.82677)"
font-family="Arial" font-size="8" font-weight="400" font-style="normal" 
>
<path vector-effect="none" fill-rule="evenodd" d="M23.7884,13.2398 L8.31192,20.2928"/>
</g>

<g fill="none" stroke="none" transform="matrix(0.885827,0,0,0.885827,1.82677,1.82677)"
font-family="Arial" font-size="8" font-weight="400" font-style="normal" 
>
<path vector-effect="none" fill-rule="evenodd" d="M8.21158,13.2398 L23.6881,20.2928"/>
</g>

<g fill="none" stroke="#000000" stroke-opacity="1" stroke-width="1.13386" stroke-linecap="square" stroke-linejoin="round" transform="matrix(0.885827,0,0,0.885827,1.82677,1.82677)"
font-family="Arial" font-size="8" font-weight="400" font-style="normal" 
>
<path vector-effect="none" fill-rule="evenodd" d="M8.21158,13.2398 L23.6881,20.2928"/>
</g>

<g fill="none" stroke="#000000" stroke-opacity="1" stroke-width="1" stroke-linecap="square" stroke-linejoin="round" transform="matrix(1.33333,0,0,1.33333,16,16)"
font-family="Arial" font-size="8" font-weight="400" font-style="normal" 
>
</g>

<g fill="none" stroke="#000000" stroke-opacity="1" stroke-width="1" stroke-linecap="square" stroke-linejoin="round" transform="matrix(1,0,0,1,16,16)"
font-family="Arial" font-size="8" font-weight="400" font-style="normal" 
>
</g>

<g fill="none" stroke="#000000" stroke-opacity="1" stroke-width="1" stroke-linecap="square" stroke-linejoin="round" transform="matrix(1,0,0,1,0,0)"
font-family="Arial" font-size="8" font-weight="400" font-style="normal" 
>
</g>
</g>
</svg>
